<?xml version="1.0" encoding="utf-8"?>
<!-- Generator: Adobe Illustrator 24.0.0, SVG Export Plug-In . SVG Version: 6.00 Build 0)  -->
<svg version="1.1" id="Warstwa_1" xmlns="http://www.w3.org/2000/svg" xmlns:xlink="http://www.w3.org/1999/xlink" x="0px" y="0px"
	 viewBox="0 0 708.66 708.66" style="enable-background:new 0 0 708.66 708.66;" xml:space="preserve">
<style type="text/css">
	.st0{fill-rule:evenodd;clip-rule:evenodd;}
</style>
<path class="st0" d="M446.93,699.78V431.87h88.37l14.03-88.85h-102.4V298.5c0-23.27,7.6-45.32,40.78-45.32h66.58v-88.64h-94.39
	c-79.35,0-100.98,52.39-100.98,124.72v53.76h-54.4v88.85h54.4v267.91H446.93z M446.93,699.78"/>
<path d="M513.1,0H195.56C87.72,0,0,87.73,0,195.57V513.1c0,107.84,87.72,195.56,195.56,195.56H513.1
	c107.84,0,195.56-87.74,195.56-195.56V195.57C708.66,87.73,620.94,0,513.1,0L513.1,0z M645.79,513.1
	c0,73.17-59.52,132.69-132.69,132.69H195.56c-73.17,0-132.69-59.52-132.69-132.69V195.57c0-73.17,59.52-132.69,132.69-132.69H513.1
	c73.17,0,132.69,59.52,132.69,132.69V513.1z M645.79,513.1"/>
</svg>
