<?xml version="1.0" encoding="utf-8"?>
<!-- Generator: Adobe Illustrator 24.0.0, SVG Export Plug-In . SVG Version: 6.00 Build 0)  -->
<svg version="1.1" id="Warstwa_1" xmlns="http://www.w3.org/2000/svg" xmlns:xlink="http://www.w3.org/1999/xlink" x="0px" y="0px"
	 viewBox="0 0 708.66 708.66" style="enable-background:new 0 0 708.66 708.66;" xml:space="preserve">
<path d="M512.55,0h-317.2C87.63,0,0,87.63,0,195.36v317.19c0,107.73,87.63,195.36,195.36,195.36h317.2
	c107.73,0,195.36-87.65,195.36-195.36V195.36C707.91,87.63,620.28,0,512.55,0L512.55,0z M645.1,512.55
	c0,73.09-59.45,132.55-132.55,132.55h-317.2c-73.09,0-132.55-59.45-132.55-132.55V195.36c0-73.09,59.45-132.55,132.55-132.55h317.2
	c73.09,0,132.55,59.46,132.55,132.55V512.55z M645.1,512.55"/>
<path d="M353.96,171.56c-100.59,0-182.42,81.82-182.42,182.39c0,100.59,81.82,182.42,182.42,182.42
	c100.57,0,182.42-81.82,182.42-182.42C536.37,253.39,454.53,171.56,353.96,171.56L353.96,171.56z M353.96,473.54
	c-65.94,0-119.61-53.63-119.61-119.59c0-65.93,53.65-119.6,119.61-119.6s119.61,53.67,119.61,119.6
	C473.57,419.92,419.89,473.54,353.96,473.54L353.96,473.54z M353.96,473.54"/>
<path d="M544.02,118.3c-12.11,0-23.99,4.89-32.53,13.47c-8.61,8.55-13.54,20.44-13.54,32.59c0,12.1,4.95,23.98,13.54,32.57
	c8.53,8.55,20.42,13.48,32.53,13.48c12.14,0,23.98-4.93,32.57-13.48c8.59-8.58,13.49-20.49,13.49-32.57
	c0-12.15-4.9-24.05-13.49-32.59C568.04,123.19,556.16,118.3,544.02,118.3L544.02,118.3z M544.02,118.3"/>
</svg>
