<?xml version="1.0" encoding="utf-8"?>
<!-- Generator: Adobe Illustrator 24.0.0, SVG Export Plug-In . SVG Version: 6.00 Build 0)  -->
<svg version="1.1" id="Warstwa_1" xmlns="http://www.w3.org/2000/svg" xmlns:xlink="http://www.w3.org/1999/xlink" x="0px" y="0px"
	 viewBox="0 0 220 41.89" style="enable-background:new 0 0 220 41.89;" xml:space="preserve">
<style type="text/css">
	.st0{fill:#020203;}
</style>
<g>
	<g>
		<path class="st0" d="M53.41,28.72L53.1,9.18c-0.33-1.08-3.76-0.15-3.4,1.03l0.71,13.61l-6.78-11.76
			c-0.35-1.15-2.88-0.41-2.53,0.77l0.73,13.5l-6.99-11.59c-0.09-0.29-0.35-0.45-0.69-0.51c-1.07-0.29-3.03,0.49-2.71,1.55
			c0.41,1.36,3.93,12.95,3.93,12.95c0.22,0.73,0.23,1.32,0.04,1.78c-0.2,0.46-0.52,0.76-0.97,0.89c-0.39,0.12-0.79,0.1-1.2-0.06
			c-0.41-0.16-0.69-0.5-0.77-0.75c-0.39-1.27-3.65-0.16-3.3,1c0.35,1.16,1.25,2.31,2.51,2.85c1.26,0.54,2.66,0.57,4.2,0.11
			c1.23-0.37,2.14-1.18,2.73-2.41c0.59-1.23,0.67-2.55,0.24-3.96c0,0-4.74-9.31-5.15-10.68l8.53,14.64c0.28,0.92,2.86,0.06,2.6-0.79
			l-0.63-12.82l6.56,11.02C51.02,30.45,53.69,29.64,53.41,28.72z"/>
		<g>
			<path class="st0" d="M65,3.49c0.56,0,1.05,0.2,1.47,0.61c0.45,0.44,0.67,0.98,0.67,1.64c0,0.3-0.06,0.59-0.18,0.87
				c-0.12,0.28-0.28,0.52-0.5,0.73c-0.2,0.19-0.43,0.34-0.68,0.45S65.27,7.95,65,7.95c-0.27,0-0.53-0.05-0.78-0.16
				s-0.48-0.26-0.68-0.45c-0.45-0.44-0.67-0.99-0.67-1.64c0-0.3,0.06-0.59,0.18-0.87c0.12-0.28,0.28-0.52,0.5-0.73
				C63.96,3.69,64.45,3.49,65,3.49z M65,3.7c-0.47,0-0.89,0.17-1.25,0.5c-0.2,0.19-0.36,0.42-0.48,0.68
				C63.15,5.15,63.1,5.42,63.1,5.7c0,0.58,0.19,1.06,0.58,1.46c0.18,0.18,0.38,0.32,0.61,0.42c0.23,0.1,0.47,0.15,0.71,0.15
				c0.24,0,0.48-0.05,0.71-0.15c0.23-0.1,0.44-0.24,0.62-0.42c0.18-0.19,0.32-0.41,0.43-0.66c0.1-0.25,0.15-0.5,0.15-0.77
				c0-0.3-0.06-0.58-0.17-0.85c-0.11-0.27-0.28-0.5-0.48-0.69C65.89,3.87,65.47,3.7,65,3.7z M66.06,6.96h-0.64l-0.78-1.03v1.03
				h-0.52V4.39h0.83c0.16,0,0.29,0.01,0.39,0.04c0.1,0.03,0.2,0.07,0.28,0.14c0.2,0.16,0.3,0.36,0.3,0.62c0,0.2-0.06,0.37-0.17,0.49
				c-0.11,0.13-0.27,0.22-0.49,0.26L66.06,6.96z M64.64,5.56h0.25c0.16,0,0.28-0.03,0.37-0.09c0.08-0.06,0.12-0.15,0.12-0.26
				c0-0.12-0.04-0.21-0.12-0.27c-0.08-0.06-0.19-0.1-0.33-0.1h-0.29V5.56z"/>
		</g>
		<g>
			<path class="st0" d="M23.74,2.65c-0.6,0.09-1.07,0.56-1.16,1.15c-0.04,0.22-0.89,5.65-0.89,17.84c0,12.19,0.85,17.62,0.89,17.84
				c0.1,0.6,0.58,1.07,1.18,1.15c0.26,0.04,6.57,0.89,17.97,0.89c11.4,0,17.41-0.85,17.66-0.89c0.61-0.09,1.08-0.56,1.17-1.16
				c0.04-0.24,0.89-5.95,0.89-17.83c0-11.87-0.85-17.59-0.89-17.83c-0.09-0.6-0.56-1.06-1.15-1.16c-0.22-0.04-5.65-0.89-17.68-0.89
				C29.69,1.76,23.97,2.61,23.74,2.65z M41.72,4.54c8.88,0,14.14,0.48,16.22,0.72c0.24,2.12,0.73,7.55,0.73,16.38
				c0,8.82-0.49,14.24-0.73,16.37c-2.17,0.24-7.7,0.73-16.22,0.73c-8.58,0-14.31-0.5-16.54-0.74c-0.24-2.08-0.72-7.37-0.72-16.36
				c0-9.01,0.48-14.3,0.72-16.37C27.31,5.03,32.77,4.54,41.72,4.54z"/>
		</g>
	</g>
	<g>
		<g>
			<path class="st0" d="M75.06,31.29l-0.59-2.18c1.52-0.37,1.85-1.08,1.85-2.67V18.3h2.67v8.31C78.99,29.24,77.67,30.82,75.06,31.29
				z"/>
			<path class="st0" d="M84.52,29.55c-2.38,0-3.97-1.65-3.97-4.12c0-2.47,1.59-4.14,3.97-4.14c2.38,0,3.99,1.67,3.99,4.14
				C88.51,27.89,86.9,29.55,84.52,29.55z M84.52,23.5c-0.97,0-1.34,0.7-1.34,1.94c0,1.24,0.38,1.94,1.34,1.94
				c0.97,0,1.35-0.7,1.35-1.94C85.87,24.19,85.49,23.5,84.52,23.5z"/>
			<path class="st0" d="M94.64,29.3v-4.37c0-1.06-0.33-1.57-1.08-1.57c-0.53,0-0.92,0.29-1.24,0.92v5.03h-2.49V17.2h2.49v5.33
				c0.55-0.68,1.37-1.23,2.27-1.23c1.63,0,2.54,1.21,2.54,3.48v4.52H94.64z"/>
			<path class="st0" d="M103.81,29.3v-4.39c0-1.08-0.27-1.56-1.08-1.56c-0.49,0-0.93,0.31-1.24,0.92v5.03H99v-7.8h2.31v1.23h0.04
				c0.46-0.92,1.3-1.43,2.34-1.43c1.59,0,2.62,1.26,2.62,3.42v4.58H103.81z"/>
			<path class="st0" d="M118.51,29.3h-1.83l-1.98-6.66h-0.04l-1.98,6.66h-1.81l-3.57-11h2.96l0.99,3.7
				c0.11,0.38,0.33,1.32,0.64,2.82h0.04l1.89-6.52h1.74l1.89,6.52h0.04c0.27-1.39,0.48-2.32,0.6-2.82l1.02-3.7h2.95L118.51,29.3z"/>
			<path class="st0" d="M124.36,26.15c0.2,0.97,0.84,1.52,1.85,1.52c0.59,0,1.08-0.22,1.65-0.64l1.13,1.35
				c-0.9,0.79-1.96,1.17-3.15,1.17c-2.49,0-4.12-1.63-4.12-4.08c0-2.42,1.63-4.17,3.9-4.17c2.1,0,3.62,1.56,3.62,3.9v0.95H124.36z
				 M125.57,23.2c-0.68,0-1.13,0.57-1.21,1.57h2.4C126.74,23.75,126.34,23.2,125.57,23.2z"/>
			<path class="st0" d="M133,29.55c-1.34,0-2.43-0.49-3.09-1.35l1.12-1.24c0.57,0.55,1.26,0.82,1.94,0.82c0.48,0,0.71-0.15,0.71-0.4
				c0-0.38-0.35-0.46-0.99-0.68c-1.78-0.6-2.6-1.37-2.6-2.73c0-1.59,1.26-2.67,3.11-2.67c0.93,0,1.83,0.24,2.8,0.73l-0.7,1.87
				c-0.75-0.44-1.45-0.64-2.01-0.64c-0.49,0-0.77,0.2-0.77,0.53c0,0.46,0.44,0.53,1.21,0.82c1.63,0.6,2.43,1.15,2.43,2.51
				C136.17,28.57,134.96,29.55,133,29.55z"/>
			<path class="st0" d="M139.87,29.5c-1.46,0-2.21-0.79-2.21-2.29v-4.36h-0.95V21.5h0.95v-2.95h2.49v2.95h0.99v1.35h-0.99v4.21
				c0,0.57,0.31,0.88,0.88,0.88h0.15v1.35C140.69,29.43,140.25,29.5,139.87,29.5z"/>
			<path class="st0" d="M145.8,29.55c-2.38,0-3.97-1.65-3.97-4.12c0-2.47,1.59-4.14,3.97-4.14s3.99,1.67,3.99,4.14
				C149.79,27.89,148.18,29.55,145.8,29.55z M145.8,23.5c-0.97,0-1.34,0.7-1.34,1.94c0,1.24,0.38,1.94,1.34,1.94
				c0.97,0,1.35-0.7,1.35-1.94C147.15,24.19,146.77,23.5,145.8,23.5z"/>
			<path class="st0" d="M155.92,29.3v-4.39c0-1.08-0.27-1.56-1.08-1.56c-0.49,0-0.93,0.31-1.24,0.92v5.03h-2.49v-7.8h2.31v1.23h0.04
				c0.46-0.92,1.3-1.43,2.34-1.43c1.59,0,2.62,1.26,2.62,3.42v4.58H155.92z"/>
			<path class="st0" d="M168.07,20.48c-0.81-0.48-1.52-0.73-2.29-0.73c-2.36,0-4.56,2.25-4.56,5.29c0,1.92,1.08,3.13,2.75,3.13
				c0.57,0,1.17-0.11,1.83-0.33l0.51-2.89h-1.13l0.26-1.37H168l-0.9,5.03c-1.21,0.64-2.31,0.95-3.26,0.95
				c-2.54,0-4.28-1.85-4.28-4.52c0-1.96,0.73-3.7,2.1-5.03c1.23-1.19,2.84-1.87,4.41-1.87c0.97,0,1.87,0.27,2.69,0.82L168.07,20.48z
				"/>
			<path class="st0" d="M174,22.95c-0.2-0.09-0.44-0.13-0.7-0.13c-0.99,0-1.79,0.92-2.1,2.65l-0.68,3.83h-1.48l1.37-7.78h1.17
				l0.05,1.23h0.04c0.55-0.95,1.32-1.45,2.16-1.45c0.33,0,0.62,0.09,0.91,0.29L174,22.95z"/>
			<path class="st0" d="M180.46,28.2c-0.84,0.88-1.94,1.35-3.11,1.35c-1.99,0-3.28-1.41-3.28-3.64c0-1.1,0.44-2.21,1.21-3.09
				c0.88-1.01,2-1.52,3.26-1.52c1.92,0,3.26,1.45,3.26,3.62C181.8,26.17,181.32,27.32,180.46,28.2z M178.43,22.67
				c-1.57,0-2.87,1.41-2.87,3.42c0,1.3,0.71,2.09,1.9,2.09c1.57,0,2.86-1.41,2.86-3.46C180.31,23.48,179.58,22.67,178.43,22.67z"/>
			<path class="st0" d="M189.21,27.82c-0.02,0.07-0.02,0.13-0.02,0.18c0,0.22,0.11,0.33,0.29,0.33h0.07l-0.18,1.04
				c-0.22,0.05-0.44,0.07-0.62,0.07c-0.7,0-1.08-0.35-1.13-1.03h-0.04c-0.62,0.77-1.34,1.13-2.27,1.13c-1.5,0-2.38-0.93-2.38-2.62
				c0-0.31,0.04-0.62,0.09-0.95l0.77-4.47h1.5L184.51,26c-0.06,0.33-0.09,0.62-0.09,0.88c0,0.9,0.46,1.35,1.34,1.35
				c1.34,0,2.09-1.03,2.45-3.11l0.62-3.61h1.48L189.21,27.82z"/>
			<path class="st0" d="M197.94,28.11c-0.92,0.97-1.89,1.45-3.02,1.45c-0.99,0-1.68-0.38-2.14-1.17h-0.04l-0.77,4.39h-1.52
				l2.01-11.26h1.21l0.11,0.81h0.04c0.57-0.66,1.41-1.02,2.32-1.02c1.79,0,2.98,1.41,2.98,3.53
				C199.13,26.17,198.69,27.32,197.94,28.11z M195.82,22.62c-1.37,0-2.69,1.48-2.69,3.5c0,1.32,0.66,2.12,1.7,2.12
				c1.45,0,2.73-1.5,2.73-3.42C197.56,23.39,196.92,22.62,195.82,22.62z"/>
		</g>
	</g>
</g>
</svg>
