<?xml version="1.0" encoding="utf-8"?>
<!-- Generator: Adobe Illustrator 24.0.0, SVG Export Plug-In . SVG Version: 6.00 Build 0)  -->
<svg version="1.1" id="Warstwa_1" xmlns="http://www.w3.org/2000/svg" xmlns:xlink="http://www.w3.org/1999/xlink" x="0px" y="0px"
	 viewBox="0 0 465 299" style="enable-background:new 0 0 465 299;" xml:space="preserve">
<style type="text/css">
	.st0{fill:#FFFFFF;}
	.st1{fill:url(#SVGID_1_);}
	.st2{fill:url(#SVGID_2_);}
</style>
<path class="st0" d="M251.52,274.46c6.76,0,11.78-5.38,11.78-11.96c0-6.58-4.92-11.96-11.78-11.96c-2.99,0-6.44,1.43-8.42,4.19
	v-14.31h-3.45V274h3.4v-3.77C245.03,272.99,248.53,274.46,251.52,274.46z M251.33,271.24c-4.97,0-8.6-3.91-8.6-8.74
	c0-4.78,3.63-8.74,8.6-8.74c4.69,0,8.37,3.91,8.37,8.74C259.7,267.33,256.02,271.24,251.33,271.24z M269.76,284.63h3.77L288.02,251
	h-3.86l-7.31,17.57L268.93,251h-3.91l9.94,21.67L269.76,284.63z M311.38,274.46c5.66,0,8.56-3.59,8.56-7.59
	c0-4.14-2.76-5.8-5.52-6.76c-2.76-0.97-5.57-1.2-5.57-2.53c0-0.97,0.69-1.84,2.3-1.84c1.61,0,2.62,0.6,2.62,2.58v0.09h6.12
	c0-5.29-3.73-7.87-8.92-7.87c-5.29,0-8.42,2.99-8.42,6.99c0,4.28,2.85,5.84,5.66,6.81c2.85,1.01,5.66,1.2,5.66,2.62
	c0,1.29-0.69,2.02-2.48,2.02c-1.52,0-2.81-0.69-2.81-2.58v-0.18h-6.35C302.23,271.7,305.26,274.46,311.38,274.46z M332.22,274.46
	c2.99,0,5.43-1.24,6.95-3.04V274h6.3v-23h-6.3v2.25c-1.52-1.61-3.86-2.71-6.85-2.71c-5.2,0-11.18,3.82-11.18,11.96
	C321.13,270.6,327.34,274.46,332.22,274.46z M333.46,268.66c-3.45,0-6.16-2.71-6.16-6.21c0-3.54,2.71-6.16,6.16-6.16
	c3.45,0,5.89,2.71,5.89,6.16S336.91,268.66,333.46,268.66z M348.45,274h6.3v-12.56c0-3.86,1.98-5.52,4.37-5.52
	c2.81,0,4.23,1.75,4.23,4.88V274h6.39v-14.03c0-5.93-3.22-9.43-8.69-9.43c-2.62,0-4.88,1.15-6.35,3.04V251h-6.26V274z M380.8,274.46
	c5.66,0,8.56-3.59,8.56-7.59c0-4.14-2.76-5.8-5.52-6.76s-5.57-1.2-5.57-2.53c0-0.97,0.69-1.84,2.3-1.84c1.61,0,2.62,0.6,2.62,2.58
	v0.09h6.12c0-5.29-3.73-7.87-8.92-7.87c-5.29,0-8.42,2.99-8.42,6.99c0,4.28,2.85,5.84,5.66,6.81c2.85,1.01,5.66,1.2,5.66,2.62
	c0,1.29-0.69,2.02-2.48,2.02c-1.52,0-2.81-0.69-2.81-2.58v-0.18h-6.35C371.64,271.7,374.68,274.46,380.8,274.46z M401.63,274.46
	c2.99,0,5.43-1.24,6.95-3.04V274h6.3v-23h-6.3v2.25c-1.52-1.61-3.86-2.71-6.85-2.71c-5.2,0-11.18,3.82-11.18,11.96
	C390.55,270.6,396.76,274.46,401.63,274.46z M402.88,268.66c-3.45,0-6.16-2.71-6.16-6.21c0-3.54,2.71-6.16,6.16-6.16
	c3.45,0,5.89,2.71,5.89,6.16S406.33,268.66,402.88,268.66z M417.87,274h6.3v-10.86c0-4.28,1.47-6.03,4.83-6.03h4V251h-2.53
	c-3.13,0-5.2,1.38-6.35,3.77V251h-6.26V274z M444.6,274.46c2.99,0,5.43-1.24,6.95-3.04V274h6.3v-23h-6.3v2.25
	c-1.52-1.61-3.86-2.71-6.85-2.71c-5.2,0-11.18,3.82-11.18,11.96C433.52,270.6,439.73,274.46,444.6,274.46z M445.85,268.66
	c-3.45,0-6.16-2.71-6.16-6.21c0-3.54,2.71-6.16,6.16-6.16s5.89,2.71,5.89,6.16S449.29,268.66,445.85,268.66z"/>
<linearGradient id="SVGID_1_" gradientUnits="userSpaceOnUse" x1="-119.1667" y1="505.2176" x2="-118.1667" y2="505.2176" gradientTransform="matrix(7.000000e-15 72 116.25 -4.000000e-15 -58497.7656 8724)">
	<stop  offset="0" style="stop-color:#FFFFFF"/>
	<stop  offset="1" style="stop-color:#FFFFFF;stop-opacity:0"/>
</linearGradient>
<path class="st1" d="M6.91,216h47.81v-66.82c0-22.75,5.76-28.8,24.48-28.8h29.66V72H92.74c-19.58,0-31.68,9.22-38.3,25.06V72H6.91
	V216z M121.38,216h49.82V72h-49.82V216z M117.93,35.14c0,16.99,11.23,28.22,28.22,28.22c17.28,0,28.51-11.23,28.51-28.22
	S163.43,6.62,146.15,6.62C129.16,6.62,117.93,18.14,117.93,35.14z M242.85,218.88c39.74,0,60.48-23.04,60.48-49.54
	c0-31.39-22.75-40.9-46.08-44.93c-14.4-3.74-27.36-4.32-27.36-9.79c0-4.32,3.46-7.49,11.23-7.49s12.38,2.59,12.38,10.37v0.29h48.1
	c-0.86-30.82-23.9-48.67-60.48-48.67c-36.86,0-59.04,19.87-59.04,46.37c0,31.97,26.5,40.61,46.08,44.35
	c14.69,3.46,27.07,4.32,27.07,10.08c0,4.9-3.17,8.35-12.38,8.35c-8.35,0-13.25-2.59-13.25-10.37v-0.86h-49.25
	C181.79,198.14,198.78,218.88,242.85,218.88z M385.49,218.88c39.46,0,61.63-18.72,74.02-51.26h-49.82
	c-4.9,7.78-11.81,12.38-24.19,12.38c-13.82,0-24.48-6.91-29.09-20.45h104.26V144c0-42.34-31.39-74.88-75.46-74.88
	c-43.78,0-75.46,33.7-75.46,74.88C309.74,185.76,337.97,218.88,385.49,218.88z M386.06,108.58c12.38,0,22.18,5.47,27.07,16.13
	h-54.72C363.89,114.62,373.39,108.58,386.06,108.58z"/>
<path class="st0" d="M251.52,274.46c6.76,0,11.78-5.38,11.78-11.96c0-6.58-4.92-11.96-11.78-11.96c-2.99,0-6.44,1.43-8.42,4.19
	v-14.31h-3.45V274h3.4v-3.77C245.03,272.99,248.53,274.46,251.52,274.46z M251.33,271.24c-4.97,0-8.6-3.91-8.6-8.74
	c0-4.78,3.63-8.74,8.6-8.74c4.69,0,8.37,3.91,8.37,8.74C259.7,267.33,256.02,271.24,251.33,271.24z M269.76,284.63h3.77L288.02,251
	h-3.86l-7.31,17.57L268.93,251h-3.91l9.94,21.67L269.76,284.63z M311.38,274.46c5.66,0,8.56-3.59,8.56-7.59
	c0-4.14-2.76-5.8-5.52-6.76c-2.76-0.97-5.57-1.2-5.57-2.53c0-0.97,0.69-1.84,2.3-1.84c1.61,0,2.62,0.6,2.62,2.58v0.09h6.12
	c0-5.29-3.73-7.87-8.92-7.87c-5.29,0-8.42,2.99-8.42,6.99c0,4.28,2.85,5.84,5.66,6.81c2.85,1.01,5.66,1.2,5.66,2.62
	c0,1.29-0.69,2.02-2.48,2.02c-1.52,0-2.81-0.69-2.81-2.58v-0.18h-6.35C302.23,271.7,305.26,274.46,311.38,274.46z M332.22,274.46
	c2.99,0,5.43-1.24,6.95-3.04V274h6.3v-23h-6.3v2.25c-1.52-1.61-3.86-2.71-6.85-2.71c-5.2,0-11.18,3.82-11.18,11.96
	C321.13,270.6,327.34,274.46,332.22,274.46z M333.46,268.66c-3.45,0-6.16-2.71-6.16-6.21c0-3.54,2.71-6.16,6.16-6.16
	c3.45,0,5.89,2.71,5.89,6.16S336.91,268.66,333.46,268.66z M348.45,274h6.3v-12.56c0-3.86,1.98-5.52,4.37-5.52
	c2.81,0,4.23,1.75,4.23,4.88V274h6.39v-14.03c0-5.93-3.22-9.43-8.69-9.43c-2.62,0-4.88,1.15-6.35,3.04V251h-6.26V274z M380.8,274.46
	c5.66,0,8.56-3.59,8.56-7.59c0-4.14-2.76-5.8-5.52-6.76s-5.57-1.2-5.57-2.53c0-0.97,0.69-1.84,2.3-1.84c1.61,0,2.62,0.6,2.62,2.58
	v0.09h6.12c0-5.29-3.73-7.87-8.92-7.87c-5.29,0-8.42,2.99-8.42,6.99c0,4.28,2.85,5.84,5.66,6.81c2.85,1.01,5.66,1.2,5.66,2.62
	c0,1.29-0.69,2.02-2.48,2.02c-1.52,0-2.81-0.69-2.81-2.58v-0.18h-6.35C371.64,271.7,374.68,274.46,380.8,274.46z M401.63,274.46
	c2.99,0,5.43-1.24,6.95-3.04V274h6.3v-23h-6.3v2.25c-1.52-1.61-3.86-2.71-6.85-2.71c-5.2,0-11.18,3.82-11.18,11.96
	C390.55,270.6,396.76,274.46,401.63,274.46z M402.88,268.66c-3.45,0-6.16-2.71-6.16-6.21c0-3.54,2.71-6.16,6.16-6.16
	c3.45,0,5.89,2.71,5.89,6.16S406.33,268.66,402.88,268.66z M417.87,274h6.3v-10.86c0-4.28,1.47-6.03,4.83-6.03h4V251h-2.53
	c-3.13,0-5.2,1.38-6.35,3.77V251h-6.26V274z M444.6,274.46c2.99,0,5.43-1.24,6.95-3.04V274h6.3v-23h-6.3v2.25
	c-1.52-1.61-3.86-2.71-6.85-2.71c-5.2,0-11.18,3.82-11.18,11.96C433.52,270.6,439.73,274.46,444.6,274.46z M445.85,268.66
	c-3.45,0-6.16-2.71-6.16-6.21c0-3.54,2.71-6.16,6.16-6.16s5.89,2.71,5.89,6.16S449.29,268.66,445.85,268.66z"/>
<linearGradient id="SVGID_2_" gradientUnits="userSpaceOnUse" x1="-119.1667" y1="505.2176" x2="-118.1667" y2="505.2176" gradientTransform="matrix(7.000000e-15 72 116.25 -4.000000e-15 -58497.7656 8724)">
	<stop  offset="0" style="stop-color:#FFFFFF"/>
	<stop  offset="1" style="stop-color:#FFFFFF;stop-opacity:0"/>
</linearGradient>
<path class="st2" d="M6.91,216h47.81v-66.82c0-22.75,5.76-28.8,24.48-28.8h29.66V72H92.74c-19.58,0-31.68,9.22-38.3,25.06V72H6.91
	V216z M121.38,216h49.82V72h-49.82V216z M117.93,35.14c0,16.99,11.23,28.22,28.22,28.22c17.28,0,28.51-11.23,28.51-28.22
	S163.43,6.62,146.15,6.62C129.16,6.62,117.93,18.14,117.93,35.14z M242.85,218.88c39.74,0,60.48-23.04,60.48-49.54
	c0-31.39-22.75-40.9-46.08-44.93c-14.4-3.74-27.36-4.32-27.36-9.79c0-4.32,3.46-7.49,11.23-7.49s12.38,2.59,12.38,10.37v0.29h48.1
	c-0.86-30.82-23.9-48.67-60.48-48.67c-36.86,0-59.04,19.87-59.04,46.37c0,31.97,26.5,40.61,46.08,44.35
	c14.69,3.46,27.07,4.32,27.07,10.08c0,4.9-3.17,8.35-12.38,8.35c-8.35,0-13.25-2.59-13.25-10.37v-0.86h-49.25
	C181.79,198.14,198.78,218.88,242.85,218.88z M385.49,218.88c39.46,0,61.63-18.72,74.02-51.26h-49.82
	c-4.9,7.78-11.81,12.38-24.19,12.38c-13.82,0-24.48-6.91-29.09-20.45h104.26V144c0-42.34-31.39-74.88-75.46-74.88
	c-43.78,0-75.46,33.7-75.46,74.88C309.74,185.76,337.97,218.88,385.49,218.88z M386.06,108.58c12.38,0,22.18,5.47,27.07,16.13
	h-54.72C363.89,114.62,373.39,108.58,386.06,108.58z"/>
</svg>
