<?xml version="1.0" encoding="utf-8"?>
<!-- Generator: Adobe Illustrator 24.0.0, SVG Export Plug-In . SVG Version: 6.00 Build 0)  -->
<svg version="1.1" id="Layer_1" xmlns="http://www.w3.org/2000/svg" xmlns:xlink="http://www.w3.org/1999/xlink" x="0px" y="0px"
	 viewBox="0 0 1417.3 386" style="enable-background:new 0 0 1417.3 386;" xml:space="preserve">
<style type="text/css">
	.st0{fill:#333D3C;}
</style>
<g>
	<g>
		<g>
			<path class="st0" d="M130.5,92.8c0-9.5,8.4-13.6,20-13.6c14.5,0,33.9,6.4,53,17.6l17.1-35.6c-19.4-12.9-43.9-20.4-67.8-20.4
				c-37.8,0-68.4,19.3-68.4,57c0,64.1,90.1,48.5,90.1,77.7c0,9.8-9.4,14.3-22,14.3c-19.1,0-42.3-8.1-60.4-22.7L76,202.4
				c19.7,16.6,47.1,25.4,75.2,25.4c39.4,0,70.7-19.7,70.7-57C222.2,106.4,130.5,120.3,130.5,92.8z"/>
			<path class="st0" d="M682.9,92.8c0-9.5,8.4-13.6,20-13.6c14.5,0,33.9,6.4,52.9,17.6L773,61.3c-19.4-12.9-43.9-20.4-67.8-20.4
				c-37.8,0-68.4,19.3-68.4,57c0,64.1,90.1,48.5,90.1,77.7c0,9.8-9.4,14.3-22,14.3c-19.1,0-42.3-8.1-60.4-22.7l-16.1,35.3
				c19.7,16.6,47.1,25.4,75.2,25.4c39.4,0,70.7-19.7,70.7-57C774.6,106.4,682.9,120.3,682.9,92.8z"/>
			<path class="st0" d="M541,41.6c-26.8,0.3-47.2,11.3-59.4,34.3l-8.7-35.1h-40.4v187.4h49.1v-90.9c-0.2-29.7,14.7-47,39.3-47.3
				c21.1,0,33.8,14.4,33.8,37.7v100.5h49.2v-116C603.9,69,579.3,41.6,541,41.6z"/>
			<path class="st0" d="M1036.9,77l-10.3-36.3h-40.3v187.4h50.6v-88.7c0-36.6,18.9-52.4,55-49l12.6-49.5
				C1078.3,41.3,1049,54.4,1036.9,77z"/>
			<path class="st0" d="M330.1,40.8c-25.1,0-44.6,5.4-65.3,15.5l14.9,36.4c13.9-6.7,27.4-10.2,39.4-10.2c22.8,0,34.8,10.8,35.3,29.6
				h0.1v1.4v3.4v31.3v3.9v12.6c0,16.1-19,27.9-39.5,27.9c-16.4,0-26.5-9.3-26.5-23.4c0-14.8,9.2-21,27.8-21h14.9v-31.3h-23.4
				c-41.7,0.3-64.8,21-64.8,55.8c0,33.8,22.2,55.2,58.6,55.2c23.7,0,41.9-5.9,53.3-21.4l9.5,21.7h38.2l-0.3-120.9
				C401.9,65.6,375.6,40.8,330.1,40.8z"/>
			<path class="st0" d="M883.4,40.8c-25.1,0-44.6,5.4-65.3,15.5L833,92.7c13.9-6.7,27.4-10.2,39.4-10.2c22.8,0,34.8,10.8,35.3,29.6
				h0.1v1.4v3.4v31.3v3.9v12.6c0,16.1-19,27.9-39.5,27.9c-16.4,0-26.5-9.3-26.5-23.4c0-14.8,9.2-21,27.8-21h14.9v-31.3h-23.4
				c-41.7,0.3-64.8,21-64.8,55.8c0,33.8,22.2,55.2,58.6,55.2c23.7,0,41.9-5.9,53.3-21.4l9.5,21.7h38.2l-0.3-120.9
				C955.1,65.6,928.9,40.8,883.4,40.8z"/>
			<path class="st0" d="M1191.8,40.8c-25.1,0-44.6,5.4-65.3,15.5l14.9,36.4c13.9-6.7,27.4-10.2,39.4-10.2
				c22.8,0,34.8,10.8,35.3,29.6h0.1v1.4v3.4v31.3v3.9v12.6c0,16.1-19,27.9-39.5,27.9c-16.4,0-26.5-9.3-26.5-23.4
				c0-14.8,9.2-21,27.8-21h14.9v-31.3h-23.4c-41.7,0.3-64.8,21-64.8,55.8c0,33.8,22.2,55.2,58.5,55.2c23.7,0,41.9-5.9,53.3-21.4
				l9.5,21.7h38.2l-0.3-120.9C1263.5,65.6,1237.3,40.8,1191.8,40.8z"/>
			<polygon class="st0" points="1287.9,206.9 1295.8,206.9 1295.8,227.9 1302.5,227.9 1302.5,206.9 1310.4,206.9 1310.4,201.5 
				1287.9,201.5 			"/>
			<polygon class="st0" points="1335.7,201.5 1328.5,217.2 1321.4,201.5 1314,201.5 1314,227.9 1320,227.9 1320,210.7 1326.4,225.2 
				1330.7,225.2 1337,210.7 1337.1,227.9 1343,227.9 1343,201.5 			"/>
		</g>
		<g>
			<path class="st0" d="M529.4,307.8c0,13.8-9.9,23.5-24.7,23.5c-15.7,0-26.9-11.7-26.9-26.1c0-14.5,11.3-26.1,26.4-26.1
				c9.6,0,17.7,4.8,22,12l-7.1,4.1c-2.6-4.7-8.2-8-14.8-8c-10.7,0-18.1,7.8-18.1,18.1c0,10.2,7.3,18,18.6,18
				c9.1,0,14.8-4.8,16.3-11.5h-16.8v-7.4h25.2v3.4H529.4z"/>
			<path class="st0" d="M612.6,312h-9.8v18.4h-8.3V280h20.2c9,0,16.2,7.2,16.2,16.2c0,6.5-4.1,12.2-10,14.6l11.4,19.6h-9.1
				L612.6,312z M602.8,304.6h11.9c4.4,0,7.9-3.7,7.9-8.4c0-4.8-3.5-8.4-7.9-8.4h-11.9V304.6z"/>
			<path class="st0" d="M693.4,305.2c0-14.6,11.6-26.1,26.1-26.1c14.6,0,26.1,11.5,26.1,26.1s-11.5,26.1-26.1,26.1
				C705,331.3,693.4,319.8,693.4,305.2z M737.4,305.2c0-10.4-7.8-18.1-17.9-18.1c-10.1,0-17.9,7.7-17.9,18.1s7.8,18.1,17.9,18.1
				C729.6,323.3,737.4,315.6,737.4,305.2z"/>
			<path class="st0" d="M809.9,313.7V280h8.3v33.2c0,5.9,3.4,10.1,10.8,10.1s10.8-4.2,10.8-10.1V280h8.3v33.7
				c0,10.9-8.1,17.6-19.1,17.6C817.9,331.3,809.9,324.6,809.9,313.7z"/>
			<path class="st0" d="M950.5,296.6c0,9.3-7.2,16.6-16.7,16.6h-10.3v17.3h-8.3V280h18.6C943.3,280,950.5,287.2,950.5,296.6z
				 M942.2,296.6c0-5.1-3.5-8.8-8.4-8.8h-10.3v17.6h10.3C938.7,305.3,942.2,301.6,942.2,296.6z"/>
		</g>
	</g>
</g>
</svg>
